<?xml version="1.0" encoding="UTF-8"?>
<svg width="22px" height="22px" viewBox="0 0 22 22" version="1.1" xmlns="http://www.w3.org/2000/svg" xmlns:xlink="http://www.w3.org/1999/xlink">
    <!-- Generator: Sketch 63 (92445) - https://sketch.com -->
    <title>首页</title>
    <desc>Created with Sketch.</desc>
    <g id="页面-1" stroke="none" stroke-width="1" fill="none" fill-rule="evenodd">
        <g id="设备列表" transform="translate(-82.000000, -821.000000)" fill-rule="nonzero">
            <g id="菜单备份" transform="translate(0.000000, 813.000000)">
                <g id="首页" transform="translate(80.000000, 6.000000)">
                    <rect id="矩形" fill="#000000" opacity="0" x="0" y="0" width="26" height="26"></rect>
                    <path d="M18.6875,23.5625 L15.4375,23.5625 C14.9887715,23.5625 14.625,23.1987285 14.625,22.75 L14.625,16.2753906 L11.375,16.2753906 L11.375,22.75 C11.375,23.1987285 11.0112285,23.5625 10.5625,23.5625 L7.3125,23.5625 C6.29700195,23.5625 5.71954297,23.1561738 5.41391602,22.8152793 C4.82663086,22.160252 4.83381641,21.3304102 4.84960937,21.0930586 L4.84960937,13.8378906 L3.25,13.8378906 C2.92136985,13.8378923 2.62509866,13.6399292 2.49934047,13.3363132 C2.37358228,13.0326972 2.44310373,12.6832222 2.67548633,12.4508516 L12.4254863,2.70085156 C12.7424883,2.38384961 13.2563691,2.38349414 13.5737773,2.70011523 L23.3237773,12.4247246 C23.5566183,12.656922 23.6265383,13.0065742 23.5008975,13.3104573 C23.3752567,13.6143404 23.0788321,13.812527 22.75,13.8125 L21.125,13.8125 L21.125,21.0878535 C21.1443223,21.3350566 21.1583125,22.1587031 20.5819707,22.8115469 C20.279543,23.1541426 19.7053848,23.5625 18.6875,23.5625 Z M16.25,21.9375 L18.6875,21.9375 C18.9122578,21.9375 19.2112832,21.903375 19.3594375,21.7409258 C19.5190684,21.565832 19.5078457,21.2629219 19.5052559,21.2191484 C19.4997715,21.1822305 19.5,21.1647871 19.5,21.125 L19.5,13 C19.5,12.5512715 19.8637715,12.1875 20.3125,12.1875 L20.7848418,12.1875 L13.0007617,4.42370703 L5.21155273,12.2128906 L5.66210937,12.2128906 C6.11083789,12.2128906 6.47460937,12.5766621 6.47460937,13.0253906 L6.47460937,21.125 C6.47460937,21.1606484 6.47504102,21.1740547 6.47072461,21.2066562 C6.4688457,21.2507852 6.46254883,21.5564629 6.62852734,21.7356699 C6.78305469,21.9024863 7.08576172,21.9375 7.3125,21.9375 L9.75,21.9375 L9.75,15.4628906 C9.75,15.0141621 10.1137715,14.6503906 10.5625,14.6503906 L15.4375,14.6503906 C15.8862285,14.6503906 16.25,15.0141621 16.25,15.4628906 L16.25,21.9375 Z" id="形状" fill="#8C8C8C"></path>
                </g>
            </g>
        </g>
    </g>
</svg>