<?xml version="1.0" encoding="UTF-8"?>
<svg width="20px" height="21px" viewBox="0 0 20 21" version="1.1" xmlns="http://www.w3.org/2000/svg" xmlns:xlink="http://www.w3.org/1999/xlink">
    <!-- Generator: Sketch 63 (92445) - https://sketch.com -->
    <title>我的</title>
    <desc>Created with Sketch.</desc>
    <g id="页面-1" stroke="none" stroke-width="1" fill="none" fill-rule="evenodd" opacity="0.45">
        <g id="首页-搜索结果" transform="translate(-312.000000, -822.000000)" fill="#000000" fill-rule="nonzero">
            <g id="菜单备份" transform="translate(0.000000, 813.000000)">
                <g id="我的" transform="translate(308.000000, 6.000000)">
                    <rect id="矩形" opacity="0" x="0" y="0" width="26" height="26"></rect>
                    <path d="M23.1805,22.4145 C23.1805,22.9353045 22.7583045,23.3575 22.2375,23.3575 C21.7166955,23.3575 21.2945,22.9353045 21.2945,22.4145 L21.2945,22.4035 L21.2675,22.4035 C20.7723389,18.7556815 17.6978666,16.0096476 14.0175,15.928 C13.9365,15.931 13.8575,15.94 13.7755,15.94 C13.6935,15.94 13.615,15.931 13.5345,15.928 C9.85604497,16.0120722 6.78435587,18.7575136 6.28949999,22.4035 L6.26649999,22.4035 L6.26649999,22.4145 C6.26649999,22.9353045 5.84430451,23.3575 5.3235,23.3575 C4.80269549,23.3575 4.38050001,22.9353045 4.38050001,22.4145 L4.37199999,22.3285 C4.37234984,22.2116621 4.39544627,22.0960101 4.43999999,21.988 C4.92669921,18.7797748 7.05397745,16.0588683 10.05,14.8125 C8.25379763,13.6262081 7.17061924,11.6195784 7.1645,9.467 C7.20377699,5.85354643 10.1645391,2.9559079 13.778,2.99450001 C17.3910722,2.95646421 20.3512214,5.85394109 20.3905,9.467 C20.3843235,11.6186657 19.3019987,13.6245418 17.507,14.811 C20.5337709,16.0687939 22.6719836,18.8306599 23.1315,22.076 C23.1570101,22.1577957 23.1706491,22.2428292 23.172,22.3285 L23.1805,22.4145 Z M18.5,9.469 C18.4409563,6.90275207 16.3436771,4.85317154 13.77675,4.85317154 C11.2098229,4.85317154 9.11254368,6.90275207 9.05349999,9.469 C9.11254368,12.0352479 11.2098229,14.0848285 13.77675,14.0848285 C16.3436771,14.0848285 18.4409563,12.0352479 18.5,9.469 L18.5,9.469 Z" id="形状"></path>
                </g>
            </g>
        </g>
    </g>
</svg>