<?xml version="1.0" encoding="UTF-8"?>
<svg width="23px" height="23px" viewBox="0 0 23 23" version="1.1" xmlns="http://www.w3.org/2000/svg" xmlns:xlink="http://www.w3.org/1999/xlink">
    <!-- Generator: Sketch 63 (92445) - https://sketch.com -->
    <title>物联网</title>
    <desc>Created with Sketch.</desc>
    <g id="页面-1" stroke="none" stroke-width="1" fill="none" fill-rule="evenodd">
        <g id="我的" transform="translate(-195.000000, -821.000000)" fill-rule="nonzero">
            <g id="菜单备份-2" transform="translate(0.000000, 813.000000)">
                <g id="物联网" transform="translate(194.000000, 7.000000)">
                    <rect id="矩形" fill="#000000" opacity="0" x="0" y="0" width="26" height="26"></rect>
                    <path d="M22.573742,15.8009052 C21.764319,18.2603625 20.0758237,20.3346564 17.8317915,21.626328 C15.5898185,22.9253939 12.9470987,23.3508147 10.4107093,22.8209618 C12.5748399,22.4973272 14.8895308,21.7009047 17.128238,20.4077734 C19.3078467,19.1498198 21.1173863,17.5935594 22.4696161,15.9317661 L22.5751491,15.8009052 L22.573742,15.8009052 Z M22.7819938,9.86994929 C22.9623991,10.5745977 23.0689753,11.2961092 23.1,12.0228229 C21.4776057,14.3262571 18.9996903,16.5663714 15.9321971,18.3365119 C12.8647039,20.1080596 9.68464214,21.1352477 6.87887085,21.3857127 C6.26435177,20.9951589 5.6923078,20.5414852 5.17205009,20.0320758 C8.04536252,20.1249449 11.6869554,19.1624837 15.2286436,17.1179573 C18.5817795,15.1817781 21.1399,12.6827561 22.5554496,10.2709748 L22.7805867,9.86994929 L22.7819938,9.86994929 Z M21.2651325,6.52666312 C21.5607443,6.95983128 21.8241139,7.41414391 22.0531124,7.88592846 C20.3688054,10.3385159 17.5194138,12.8713085 13.9622473,14.9242775 C10.406488,16.9786537 6.79022311,18.1803231 3.82263451,18.4139028 C3.52778377,17.9788158 3.26535309,17.5226191 3.03746882,17.049009 C5.81228376,16.9744324 9.54393145,15.8501539 13.2586938,13.7057229 C16.7820897,11.6710462 19.5175057,9.16498869 21.0287385,6.89532515 L21.2651325,6.52666312 Z M17.4912716,3.15804904 C17.9626525,3.40710697 18.417148,3.69274969 18.8505369,4.01357007 C18.4481044,6.57731897 15.864656,9.60119185 12.1330083,11.7554726 C8.40136059,13.9111605 4.4881961,14.6358206 2.06797211,13.7015016 C2.00768136,13.1690691 1.98745596,12.632861 2.00746651,12.0973996 C3.69318066,13.247006 7.59790251,12.7502973 11.4294548,10.536918 C15.1076324,8.41359357 17.4518726,5.44178365 17.4983072,3.40710697 L17.4912716,3.15804904 L17.4912716,3.15804904 Z M13.7371102,2 C14.221155,2.05487717 14.6995714,2.1421178 15.1696054,2.263129 C15.1822091,4.27669908 13.1981882,6.75461445 10.2334139,8.46565653 C7.27004658,10.1766986 4.13219804,10.6579292 2.39301382,9.64199796 C2.52387477,9.17202423 2.68850629,8.71330736 2.88127994,8.26584734 C3.89721118,9.16217448 6.7283104,8.8638678 9.52986038,7.24710189 C12.28779,5.65566391 13.9523976,3.39866433 13.7497742,2.06331981 L13.7357031,2 L13.7371102,2 Z M10.8525409,2.50233719 C11.1438121,3.00748859 10.0167194,4.20493662 8.33381945,5.17584043 C6.65091952,6.14674424 5.05103889,6.52525602 4.75976775,6.02010461 C4.5881007,5.72179794 4.91032819,5.18146886 5.55196897,4.58907683 C6.08442928,4.11857165 6.66284469,3.70279138 7.27848923,3.34800848 L7.63167307,3.1510135 C8.13758643,2.8844558 8.66413816,2.65905966 9.20622577,2.47700926 C10.0448615,2.21528737 10.6794668,2.2026234 10.8525409,2.50233719 Z" id="形状" stroke="#8C8C8C" stroke-width="0.3" fill="#8C8C8C"></path>
                </g>
            </g>
        </g>
    </g>
</svg>